<svg width="210" height="24" xmlns="http://www.w3.org/2000/svg"><path d="M6.664 22V2.4H1.12V22h5.544zm12.38 0V11.556L27.696 22h4.564V2.4h-5.432v10.444L18.176 2.4h-4.564V22h5.432zm25.68 0v-7.644h7.56V22h5.544V2.4h-5.544v7.364h-7.56V2.4H39.18V22h5.544zm35.76 0v-4.284H70.236v-3.584h8.708V9.988h-8.708V6.684h9.884V2.4H64.748V22h15.736zm11.624 0v-5.208h3.024L98.688 22h5.936l-4.228-6.16c1.232-.597 2.18-1.423 2.842-2.478.663-1.055.994-2.291.994-3.71 0-1.475-.355-2.758-1.064-3.85-.71-1.092-1.717-1.932-3.024-2.52-1.307-.588-2.847-.882-4.62-.882h-8.96V22h5.544zm3.08-9.492h-3.08v-5.74h3.08c1.139 0 1.997.252 2.576.756s.868 1.213.868 2.128-.29 1.62-.868 2.114c-.579.495-1.437.742-2.576.742zm21.984 9.884c1.867 0 3.453-.285 4.76-.854 1.307-.57 2.287-1.33 2.94-2.282s.98-2.016.98-3.192c0-1.363-.36-2.44-1.078-3.234a6.407 6.407 0 00-2.548-1.736c-.98-.364-2.217-.705-3.71-1.022-1.325-.28-2.287-.55-2.884-.812-.597-.261-.896-.653-.896-1.176 0-.523.252-.947.756-1.274.504-.327 1.307-.49 2.408-.49 1.755 0 3.565.504 5.432 1.512l1.708-4.116c-.952-.56-2.053-.985-3.304-1.274a16.84 16.84 0 00-3.808-.434c-1.885 0-3.477.28-4.774.84-1.297.56-2.273 1.32-2.926 2.282-.653.961-.98 2.04-.98 3.234 0 1.363.355 2.445 1.064 3.248a6.22 6.22 0 002.548 1.75c.99.364 2.221.705 3.696 1.022 1.344.299 2.32.583 2.926.854.607.27.91.686.91 1.246 0 1.064-1.064 1.596-3.192 1.596-1.12 0-2.259-.177-3.416-.532-1.157-.355-2.175-.821-3.052-1.4l-1.82 4.088c.933.653 2.147 1.176 3.64 1.568a18.12 18.12 0 004.62.588zM136.944 22V2.4H131.4V22h5.544zm16.748.392c1.456 0 2.912-.215 4.368-.644 1.456-.43 2.744-1.045 3.864-1.848v-8.12h-4.9v5.376a7.083 7.083 0 01-2.996.644c-1.083 0-2.044-.238-2.884-.714a5.02 5.02 0 01-1.96-1.988c-.467-.85-.7-1.815-.7-2.898 0-1.699.513-3.057 1.54-4.074 1.027-1.017 2.38-1.526 4.06-1.526 1.848 0 3.435.728 4.76 2.184l3.528-3.192c-.97-1.157-2.184-2.044-3.64-2.66-1.456-.616-3.099-.924-4.928-.924-2.09 0-3.967.434-5.628 1.302-1.661.868-2.959 2.077-3.892 3.626-.933 1.55-1.4 3.304-1.4 5.264 0 1.96.467 3.715 1.4 5.264.933 1.55 2.221 2.758 3.864 3.626 1.643.868 3.49 1.302 5.544 1.302zM173.996 22v-7.644h7.56V22h5.544V2.4h-5.544v7.364h-7.56V2.4h-5.544V22h5.544zm29.74 0V6.796h5.992V2.4h-17.556v4.396h6.02V22h5.544z" fill="#fff" fill-rule="nonzero"/></svg>